<svg width="162" height="42" viewBox="0 0 162 42" fill="none" xmlns="http://www.w3.org/2000/svg">
<path d="M159.236 25.1092C159.826 25.0924 160.41 24.9999 160.976 24.8341L161.25 29.3216C160.385 29.7014 159.448 29.8891 158.503 29.8718C153.558 29.8718 150.079 26.712 150.079 21.1719V12.0143H145.774V7.16037H150.079V1.1626H155.161V7.16037H161.022V12.0143H155.161V20.9425C155.161 23.5521 156.992 25.1092 159.236 25.1092Z" fill="black"/>
<path fill-rule="evenodd" clip-rule="evenodd" d="M29.6676 28.0443C27.7514 29.3248 25.4984 30.0083 23.1937 30.0083C20.1043 30.0048 17.1424 28.7761 14.9578 26.5916C12.7732 24.4071 11.5443 21.4452 11.5407 18.3558C11.5406 16.0511 12.224 13.7981 13.5044 11.8818C14.7847 9.96548 16.6046 8.47186 18.7339 7.58984C20.8631 6.70781 23.2061 6.47699 25.4665 6.92656C27.727 7.37613 29.8033 8.48591 31.4331 10.1155C33.0628 11.7452 34.1726 13.8215 34.6223 16.0819C35.072 18.3423 34.8413 20.6853 33.9594 22.8146C33.0774 24.9439 31.5839 26.7639 29.6676 28.0443ZM26.9714 12.6944C25.8484 11.9635 24.5334 11.5832 23.1937 11.6017C21.4155 11.6163 19.7156 12.3355 18.4669 13.6017C17.2181 14.8678 16.5226 16.5775 16.5327 18.3558C16.5328 19.6957 16.9313 21.0053 17.6777 22.118C18.424 23.2307 19.4845 24.0964 20.7241 24.6048C21.9638 25.1132 23.3266 25.2415 24.6394 24.9732C25.9521 24.705 27.1554 24.0524 28.0963 23.0984C29.0371 22.1444 29.673 20.9321 29.923 19.6158C30.173 18.2995 30.0258 16.9385 29.5002 15.706C28.9747 14.4736 28.0944 13.4252 26.9714 12.6944Z" fill="black"/>
<path d="M10.4397 31.2725C13.837 34.6282 18.4181 36.5125 23.1932 36.5183C27.3589 36.5353 31.401 35.1033 34.6269 32.4675L37.7996 36.3778C34.4103 39.1244 30.3153 40.8596 25.9845 41.3842C21.6538 41.9088 17.2629 41.2015 13.3159 39.3436C9.36892 37.4856 6.02585 34.5524 3.67049 30.8804C1.31513 27.2085 0.0429486 22.9469 0 18.5847H5.03716C5.10184 23.3593 7.04246 27.9169 10.4397 31.2725Z" fill="black"/>
<path d="M50.9826 7.16022H38.1627V29.5509H43.245V12.0142H50.9826V7.16022Z" fill="black"/>
<path fill-rule="evenodd" clip-rule="evenodd" d="M61.6977 6.7027C64.6737 6.7027 67.6497 8.16847 68.8404 10.1365V7.16046H73.9227V37.4268H68.8404V26.5294C67.6497 28.5431 64.6737 30.0089 61.6977 30.0089C55.6542 30.0089 50.9373 24.881 50.9373 18.3786C50.9373 11.8306 55.6542 6.7027 61.6977 6.7027ZM62.7514 25.155C65.3153 25.155 67.7423 23.736 68.8404 21.7668V14.8991C67.7423 12.9756 65.2696 11.5566 62.7514 11.5566C58.9054 11.5566 55.9749 14.4414 55.9749 18.3786C55.9749 22.2702 58.9054 25.155 62.7514 25.155Z" fill="black"/>
<path d="M94.2297 21.7666C93.6435 22.7241 92.8231 23.5166 91.8459 24.0694C90.8686 24.6222 89.7668 24.9172 88.6441 24.9264C85.4385 24.9264 83.3323 22.7277 83.3323 19.1113V7.16022H78.25V19.8898C78.25 26.1171 81.7752 30.0087 87.4077 30.0087C90.1999 30.0087 92.9021 28.681 94.2297 26.5292V29.5509H99.3576V7.16022H94.2297V21.7666Z" fill="black"/>
<path fill-rule="evenodd" clip-rule="evenodd" d="M102.649 18.2416C102.649 11.7393 107.732 6.7027 114.188 6.7027C120.231 6.7027 124.948 11.3728 124.948 17.3718C124.952 18.1083 124.89 18.8436 124.765 19.5693H107.732C108.281 23.1869 110.754 25.3844 114.371 25.3844C116.889 25.3844 119.179 24.2851 120.231 22.5454L124.307 25.155C122.658 28.1767 118.904 30.0089 114.279 30.0089C107.824 30.0089 102.649 24.9266 102.649 18.2416ZM113.913 10.9151C110.845 10.9151 108.693 12.7473 107.915 15.6777H119.591C119.316 12.8843 116.981 10.9151 113.913 10.9151Z" fill="black"/>
<path d="M132.546 13.342C132.546 11.8774 133.782 10.9607 135.66 10.9607C137.537 10.9607 140.742 11.7849 142.528 13.342L144.543 9.40479C142.528 7.57256 139.278 6.7027 136.163 6.7027C131.036 6.7027 127.464 9.58743 127.464 13.7542C127.464 18.6146 131.747 19.6324 135.29 20.4742C137.788 21.0679 139.918 21.574 139.918 23.2782C139.918 24.6972 138.453 25.7509 136.209 25.7509C133.691 25.7509 130.394 24.6059 128.654 22.9574L126.639 26.8034C128.838 28.7726 132.73 30.0546 136.347 30.0546C141.475 30.0546 145.092 27.1242 145.092 23.0944C145.092 18.1537 140.632 16.9887 137.03 16.0479C134.591 15.4108 132.546 14.8765 132.546 13.342Z" fill="black"/>
</svg>
